<svg xmlns="http://www.w3.org/2000/svg" width="20" height="20" fill="none" viewBox="0 0 20 20"><path fill="#fff" d="M4.83476 5C5.63686 5 6.35039 5.16239 6.97534 5.48717C7.60521 5.80702 8.11206 6.24498 8.49589 6.80104C8.88463 7.3571 9.11346 7.98451 9.18235 8.68327H6.92367C6.82033 8.12721 6.58905 7.66957 6.22982 7.31035C5.8706 6.95113 5.38343 6.77151 4.76833 6.77151C4.02035 6.77151 3.43231 7.052 3.00419 7.61298C2.581 8.16904 2.3694 9.10647 2.3694 10.4253C2.3694 11.7539 2.581 12.7159 3.00419 13.3114C3.43231 13.9019 4.02035 14.1971 4.76833 14.1971C5.38343 14.1971 5.8706 13.9929 6.22982 13.5845C6.58905 13.1711 6.82033 12.6864 6.92367 12.1303H9.18235C9.11838 12.6372 8.99535 13.1219 8.81328 13.5845C8.63121 14.047 8.37286 14.4579 8.03824 14.8171C7.70363 15.1714 7.27305 15.4519 6.74652 15.6586C6.2249 15.8653 5.58765 15.9686 4.83476 15.9686C3.84074 15.9686 2.98205 15.7373 2.25868 15.2748C1.53531 14.8122 0.976793 14.1627 0.583123 13.3261C0.194374 12.4896 0 11.5128 0 10.3957C0 9.27378 0.194374 8.31175 0.583123 7.50964C0.971872 6.70262 1.52547 6.08259 2.24392 5.64956C2.96729 5.21652 3.8309 5 4.83476 5Z"/><path fill="#fff" d="M15.4014 15.9686C14.4222 15.9686 13.5733 15.7472 12.8549 15.3043C12.1364 14.8565 11.5804 14.2242 11.1867 13.4073C10.793 12.5904 10.5962 11.626 10.5962 10.5138C10.5962 9.38204 10.8004 8.40524 11.2089 7.58346C11.6222 6.75675 12.198 6.1195 12.9361 5.6717C13.6742 5.2239 14.5354 5 15.5195 5C16.1543 5 16.7325 5.10334 17.2542 5.31002C17.7807 5.51177 18.2359 5.78734 18.6197 6.13672C19.0035 6.48118 19.3037 6.87485 19.5202 7.31773C19.7417 7.75569 19.8622 8.21087 19.8819 8.68327H17.6085C17.51 8.17642 17.2738 7.74093 16.8999 7.37678C16.5308 7.00772 16.0535 6.82318 15.4679 6.82318C14.9906 6.82318 14.56 6.9462 14.1761 7.19225C13.7972 7.43337 13.4971 7.81966 13.2756 8.35111C13.0542 8.88257 12.9435 9.58379 12.9435 10.4548C12.9435 11.3947 13.069 12.1279 13.3199 12.6544C13.5709 13.176 13.8957 13.5426 14.2942 13.7542C14.6928 13.9658 15.1136 14.0716 15.5565 14.0716C15.9796 14.0716 16.3413 13.9831 16.6415 13.8059C16.9417 13.6287 17.1754 13.4098 17.3427 13.149C17.515 12.8832 17.6208 12.6224 17.6601 12.3665L17.7413 11.717H15.5343V10.226L20 10.2481V15.821H18.5311V14.4259C18.3441 14.6671 18.1178 14.9082 17.852 15.1493C17.5863 15.3855 17.2542 15.5823 16.8556 15.7398C16.4619 15.8924 15.9772 15.9686 15.4014 15.9686Z"/></svg>