<svg xmlns="http://www.w3.org/2000/svg" width="138" height="49" fill="none" viewBox="0 0 138 49"><path fill="#fff" d="M64.2662 42.9287L59.0365 35.6624V47.2865H53.8411V27.0114H58.7719L64.3329 35.2673L69.9262 27.0114H74.8246V47.2884H69.5949V35.6643L64.3995 42.9306H64.2662V42.9287ZM85.3697 38.8672C84.7738 38.4379 83.3841 38.0408 82.1257 38.0408C78.9159 38.0408 76.401 39.8892 76.401 42.7634C76.401 45.9016 78.9159 47.5525 81.8611 47.5525C83.4488 47.5525 84.8728 47.0243 85.3697 46.5285V47.2884H90.3672V38.1073C90.3672 34.1769 87.8523 32.0968 83.4507 32.0968C81.3318 32.0968 79.3461 32.5926 78.122 33.2518V37.412C79.3138 36.7187 80.7702 36.3558 82.1942 36.3558C84.3131 36.3558 85.3716 37.1822 85.3716 38.3372V38.8672H85.3697ZM85.3697 43.1262C85.0385 43.7208 84.2103 44.1179 83.2851 44.1179C82.2589 44.1179 81.2328 43.6885 81.2328 42.6646C81.2328 41.6749 82.2589 41.2437 83.2851 41.2437C84.2122 41.2437 85.0385 41.6407 85.3697 42.2676V43.1262ZM99.1627 36.4565H102.075V32.4273H99.1627V28.3316H93.9996V32.4273H91.4181V36.4565H93.9996V47.2884H99.1627V36.4565ZM113.685 32.3608C113.453 32.2278 112.923 32.0968 112.261 32.0968C110.772 32.0968 109.613 32.7579 108.885 33.7476V32.4273H103.688V47.2884H108.885V38.5689C109.15 37.5127 110.109 36.8839 111.534 36.8839C112.362 36.8839 113.057 37.0169 113.685 37.3474V32.3608ZM120.538 32.4273H115.343V47.2884H120.538V32.4273ZM137.768 32.4273H132.407L130.057 35.993L127.74 32.4273H122.147L127.112 39.7258L121.917 47.2884H127.278L129.827 43.4245L132.374 47.2884H138L132.77 39.6916L137.768 32.4273ZM63.579 22.3154C69.376 22.3154 73.3835 17.9594 73.3835 12.0116C73.3835 6.03144 69.376 1.7078 63.579 1.7078C57.8143 1.7078 53.8392 6.03144 53.8392 12.0116C53.8411 17.9613 57.8143 22.3154 63.579 22.3154ZM63.579 6.2917C66.2823 6.2917 68.1062 8.5675 68.1062 12.0116C68.1062 15.4557 66.2823 17.7315 63.579 17.7315C60.8756 17.7315 59.1165 15.4557 59.1165 12.0116C59.1165 8.5675 60.8756 6.2917 63.579 6.2917ZM84.9433 21.9905H90.0569V1.7097H84.9433V8.5333C84.2598 7.75254 82.8263 7.03826 81.328 7.03826C77.094 7.03826 74.7809 10.4501 74.7809 14.6768C74.7809 18.9017 77.094 22.3154 81.328 22.3154C82.8263 22.3154 84.2598 21.6011 84.9433 20.8203V21.9905ZM84.9433 16.5955C84.553 17.4085 83.7058 17.9613 82.6949 17.9613C80.9358 17.9613 79.8944 16.5632 79.8944 14.6787C79.8944 12.7943 80.9358 11.3638 82.6949 11.3638C83.6716 11.3638 84.5511 11.9489 84.9433 12.7297V16.5955ZM101.838 21.9905H106.951V1.7097H101.838V8.5333C101.154 7.75254 99.7205 7.03826 98.2222 7.03826C93.9882 7.03826 91.6751 10.4501 91.6751 14.6768C91.6751 18.9017 93.9882 22.3154 98.2222 22.3154C99.7205 22.3154 101.154 21.6011 101.838 20.8203V21.9905ZM101.838 16.5955C101.445 17.4085 100.6 17.9613 99.5891 17.9613C97.83 17.9613 96.7887 16.5632 96.7887 14.6787C96.7887 12.7943 97.83 11.3638 99.5891 11.3638C100.566 11.3638 101.445 11.9489 101.838 12.7297V16.5955ZM108.634 20.9172C110.001 21.8272 112.152 22.3154 114.203 22.3154C117.818 22.3154 120.521 20.7881 120.521 17.6669C120.521 15.1973 119.251 13.8961 116.059 13.0507L114.722 12.6613C114.007 12.4656 113.582 12.2718 113.582 11.719C113.582 11.1339 114.168 10.8414 115.048 10.8414C116.71 10.8414 118.273 11.5234 119.674 12.5321V8.33954C118.241 7.46189 116.645 7.03826 114.561 7.03826C111.107 7.03826 108.567 8.76126 108.567 11.8159C108.567 14.4489 110.294 15.7159 112.998 16.301L114.138 16.5936C115.017 16.7893 115.472 17.0172 115.472 17.6023C115.472 18.252 114.821 18.48 113.81 18.48C112.312 18.48 110.031 17.7657 108.632 16.6278V20.9172H108.634ZM24.5532 0C38.1139 0 49.1064 10.9687 49.1064 24.5C49.1064 38.0313 38.1139 49 24.5532 49C10.9925 49 0 38.0313 0 24.5C0 10.9687 10.9925 0 24.5532 0ZM39.2276 9.51163C39.2276 9.38055 39.22 9.24948 39.2105 9.1203C38.1196 7.50368 36.6727 6.02384 36.0502 5.41785C35.8883 5.39315 35.7056 5.36466 35.5 5.33426C35.1325 5.28107 34.7061 5.22028 34.2473 5.16329C34.0188 5.1367 33.7808 5.1082 33.541 5.08161C33.2992 5.05691 33.0555 5.03222 32.8099 5.00942C31.8295 4.92014 30.8433 4.86505 30.1046 4.83085C30.097 4.83085 30.0875 4.83085 30.0799 4.82895C29.5544 5.7123 28.9052 6.75142 28.416 7.52458C28.5054 7.62146 28.6006 7.72784 28.7015 7.84562C28.9357 8.11538 29.1927 8.43452 29.4554 8.78216C29.5868 8.95503 29.7182 9.1374 29.8514 9.32166C29.9162 9.41475 29.9828 9.50783 30.0475 9.60091L30.2417 9.88396C30.3654 10.0644 30.4968 10.2658 30.6206 10.4558C30.7424 10.6457 30.8604 10.8338 30.9747 11.0181C31.1993 11.3847 31.4011 11.7342 31.5667 12.0382C31.7324 12.3421 31.8637 12.6005 31.9532 12.7848C31.9646 12.8076 31.9722 12.8265 31.9818 12.8455L37.6836 13.2331C38.6698 12.1123 39.2276 10.849 39.2276 9.51163ZM25.5108 1.85597H25.4898C26.535 2.23591 28.2389 2.91599 29.4859 3.66256C29.6801 3.68345 29.92 3.74234 30.1922 3.77464C30.9366 3.86392 31.9304 3.9912 32.9203 4.15267C33.1678 4.19636 33.4153 4.23816 33.6571 4.27995C33.8989 4.32554 34.1388 4.37113 34.3691 4.41482C34.8298 4.50601 35.2563 4.59529 35.6237 4.67698C35.7817 4.71117 35.9283 4.74157 36.0597 4.77196L36.2977 4.49841C33.7218 2.54935 29.6782 1.24808 25.0996 1.1531L25.5108 1.85597ZM23.5918 1.85597L24.0049 1.1531C19.4263 1.24808 15.3826 2.56645 12.8068 4.51741L13.0448 4.78146C13.178 4.75107 13.3227 4.71687 13.4807 4.68268C13.8463 4.60099 14.2746 4.50791 14.7353 4.41673C14.9657 4.37303 15.2056 4.32554 15.4473 4.27995C15.691 4.23816 15.9366 4.19066 16.1841 4.14887C17.1741 3.9855 18.166 3.85062 18.9122 3.76134C19.1845 3.72905 19.4244 3.68535 19.6186 3.66446C20.8655 2.91979 22.5713 2.23781 23.6146 1.85787H23.5918V1.85597ZM17.1493 12.7829C17.2388 12.5986 17.3702 12.3402 17.5358 12.0363C17.7014 11.7323 17.9032 11.3847 18.1279 11.0162C18.2402 10.8319 18.3582 10.6438 18.482 10.4539C18.6057 10.2639 18.7371 10.0644 18.8608 9.88207L19.055 9.59902C19.1217 9.50593 19.1864 9.41095 19.2511 9.31977C19.3844 9.1355 19.5157 8.95503 19.6471 8.78026C19.9098 8.43262 20.1668 8.11348 20.401 7.84372C20.5019 7.72594 20.5971 7.62146 20.6866 7.52268C20.1973 6.75141 19.5481 5.7123 19.0227 4.82705C19.0151 4.82705 19.0055 4.82705 18.9979 4.82895C18.2592 4.86315 17.2731 4.91824 16.2926 5.00752C16.047 5.03222 15.8034 5.05691 15.5616 5.07971C15.3217 5.1082 15.0837 5.1348 14.8553 5.16139C14.3965 5.21838 13.9681 5.27727 13.6026 5.33236C13.397 5.36276 13.2142 5.39125 13.0524 5.41595C12.4317 6.02194 10.9868 7.49988 9.8959 9.1146C9.88448 9.24568 9.87876 9.37865 9.87876 9.51163C9.87876 10.849 10.4366 12.1104 11.4208 13.2312L17.1208 12.8436C17.1303 12.8228 17.1379 12.8057 17.1493 12.7829ZM16.9475 44.3572C20.7208 42.4993 20.915 35.1951 17.3797 28.041C13.8444 20.8868 7.91786 16.5936 4.14455 18.4496C0.369335 20.3074 0.177052 27.6117 3.71239 34.7658C7.24773 41.9218 13.1742 46.2151 16.9475 44.3572ZM21.1606 17.6213C22.2496 17.7676 23.3842 17.8474 24.5532 17.8474C25.7202 17.8474 26.853 17.7676 27.9419 17.6213L30.9899 13.4686C30.9689 13.4344 30.9461 13.3964 30.9175 13.3509C30.8185 13.1932 30.672 12.9671 30.4854 12.6993C30.2988 12.4314 30.0761 12.1237 29.8267 11.8007C29.7029 11.6393 29.5716 11.4721 29.4364 11.3049C29.3012 11.1396 29.1699 10.9763 29.0214 10.8034L28.8081 10.5507C28.7358 10.4691 28.6654 10.3798 28.5949 10.2981C28.4521 10.1385 28.3113 9.96565 28.1723 9.81938C27.8962 9.52493 27.6316 9.22478 27.4012 9.01012C27.2052 8.82775 27.0376 8.69477 26.9082 8.50481H24.5513H22.1944C22.0668 8.69477 21.8974 8.82775 21.7013 9.01012C21.4709 9.22478 21.2063 9.56102 20.9303 9.85547C20.7913 10.0017 20.6504 10.1575 20.5076 10.3171C20.4372 10.3969 20.3667 10.4786 20.2944 10.5602L20.0812 10.8091C19.9327 10.982 19.8013 11.1434 19.6661 11.3087C19.531 11.4759 19.3996 11.6412 19.2759 11.8026C19.0265 12.1256 18.8018 12.4333 18.6172 12.7012C18.4306 12.969 18.284 13.1951 18.185 13.3528C18.1564 13.3983 18.1336 13.4382 18.1127 13.4705L21.1606 17.6213ZM28.1399 44.4997C32.1664 47.3207 39.1476 44.323 43.732 37.8053C48.3182 31.2875 48.7713 23.7192 44.7448 20.8982C40.7183 18.0772 33.7371 21.0749 29.1527 27.5927C24.5684 34.1104 24.1134 41.6787 28.1399 44.4997Z"/></svg>